<?xml version="1.0" standalone="no"?>
<!DOCTYPE svg PUBLIC "-//W3C//DTD SVG 20010904//EN"
 "http://www.w3.org/TR/2001/REC-SVG-20010904/DTD/svg10.dtd">
<svg version="1.0" xmlns="http://www.w3.org/2000/svg"
 width="225.000000pt" height="225.000000pt" viewBox="0 0 225.000000 225.000000"
 preserveAspectRatio="xMidYMid meet">
<metadata>
Created by potrace 1.11, written by Peter Selinger 2001-2013
</metadata>
<g transform="translate(0.000000,225.000000) scale(0.100000,-0.100000)"
fill="#000000" stroke="none">
<path d="M905 2045 c-96 -27 -194 -84 -275 -161 -52 -50 -85 -74 -101 -74 -45
0 -143 -55 -187 -105 -67 -76 -102 -214 -102 -402 0 -116 20 -234 49 -291 26
-51 94 -109 146 -124 22 -6 45 -15 52 -20 6 -5 62 -88 124 -186 125 -195 170
-244 268 -295 79 -42 146 -57 246 -57 100 0 167 15 246 57 98 51 142 99 267
295 63 97 119 181 125 186 7 5 30 14 52 20 129 37 195 177 195 415 0 188 -35
326 -102 402 -44 50 -142 105 -187 105 -16 0 -49 24 -101 74 -82 78 -179 134
-280 161 -72 19 -364 19 -435 0z m473 -129 c35 -16 84 -44 110 -63 l47 -33
-409 0 -410 0 35 26 c47 35 125 75 179 90 31 9 99 12 215 11 164 -2 172 -4
233 -31z m253 -215 c104 -6 121 -10 156 -34 21 -14 46 -39 55 -54 46 -79 71
-300 48 -440 -19 -118 -49 -164 -123 -184 -33 -9 -53 -6 -140 20 -182 55 -193
56 -502 56 -309 0 -320 -1 -502 -56 -87 -26 -107 -29 -140 -20 -71 19 -103 65
-122 172 -24 141 -6 339 40 435 11 24 37 54 61 70 37 26 53 30 142 35 147 8
891 9 1027 0z m-211 -756 c52 -8 123 -24 157 -35 l63 -22 -37 -56 c-19 -32
-63 -100 -96 -152 -70 -112 -126 -169 -205 -207 -53 -25 -66 -27 -177 -27
-111 0 -124 2 -177 27 -79 38 -135 95 -205 207 -33 52 -77 121 -97 152 l-36
57 82 26 c46 14 115 29 153 34 119 15 470 12 575 -4z"/>
<path d="M554 1619 c-82 -23 -119 -123 -119 -316 0 -115 8 -142 39 -130 13 5
16 26 16 119 0 139 18 224 55 255 22 19 38 23 94 23 76 0 105 16 81 45 -14 17
-113 19 -166 4z"/>
<path d="M1507 1623 c-13 -12 -7 -41 9 -47 9 -3 42 -6 75 -6 38 0 69 -6 84
-16 39 -26 57 -100 59 -249 2 -116 5 -130 21 -133 10 -2 21 2 26 10 14 22 10
228 -6 297 -19 79 -44 114 -95 135 -40 16 -160 22 -173 9z"/>
<path d="M867 783 c-18 -18 -5 -59 26 -84 115 -92 271 -109 397 -43 75 39 102
67 98 100 -4 39 -37 43 -81 10 -115 -88 -249 -88 -364 0 -31 23 -63 31 -76 17z"/>
</g>
</svg>
